<?xml version="1.0" encoding="utf-8"?>
<!-- Generator: Adobe Illustrator 22.0.0, SVG Export Plug-In . SVG Version: 6.00 Build 0)  -->
<svg version="1.1" id="Layer_1" xmlns="http://www.w3.org/2000/svg" xmlns:xlink="http://www.w3.org/1999/xlink" x="0px" y="0px"
	 viewBox="0 0 75 20" style="enable-background:new 0 0 75 20;" xml:space="preserve">
<style type="text/css">
	.st0{fill:#F40000;}
	.st1{fill:#F46E00;}
</style>
<g>
	<path class="st0" d="M7,5.4c4,0,6,2.9,6,6.5c0,0.4-0.1,1-0.1,1H2.7C2.9,16,5,17.6,7.5,17.6c2.4,0,4.2-1.6,4.2-1.6l1.1,2
		c0,0-2.1,1.9-5.4,1.9C3,20,0,16.8,0,12.7C0,8.3,3,5.4,7,5.4z M10.3,11.2C10.2,8.7,8.7,7.5,7,7.5c-2,0-3.7,1.4-4.1,3.7H10.3z"/>
	<path class="st0" d="M12.8,17.6H15V7.8h-2.3V5.7H15V5c0-4.5,3.4-5,5-5c0.7,0,1.3,0.1,1.3,0.1v2.2c0,0-0.4-0.1-1-0.1
		c-0.9,0-2.6,0.2-2.6,2.8v0.7h6.8V5c0-4.5,3.3-5,5-5c0.8,0,1.3,0.1,1.3,0.1v2.2c0,0-0.4-0.1-1-0.1c-0.9,0-2.6,0.2-2.6,2.8v0.7h3.4
		v2.1h-3.4v9.8h2.6v2.1h-7.4v-2.1h2.2V7.8h-6.8v9.8h2.6v2.1H13v-2.1H12.8z"/>
	<g>
		<path class="st1" d="M38.2,7.7c2.6,0,4.8,2.1,4.8,5l0,0h2.7l0,0c0-4.2-3.4-7.3-7.5-7.3l0,0V7.7L38.2,7.7z"/>
		<path class="st1" d="M38.2,17.7c-2.6,0-4.8-2.1-4.8-5h-2.7c0,4.2,3.4,7.3,7.5,7.3l0,0V17.7L38.2,17.7z"/>
	</g>
	<path class="st0" d="M45.9,17.6h2.2V8.4c0-0.4-0.2-0.6-0.6-0.6h-1.7V5.7h3.1c1.2,0,1.8,0.5,1.8,1.5V8c0,0.4-0.1,0.8-0.1,0.8h0.1
		c0.3-0.7,1.9-3.4,5.4-3.4c3.2,0,4.6,1.8,4.6,5.4v6.9h2.2v2.1H58v-8.3c0-2-0.4-3.5-2.6-3.5c-2.8,0-4.7,2.6-4.7,5.4v4.4H53v2.1h-7.1
		V17.6z"/>
	<path class="st0" d="M69,5.4c4,0,6,2.9,6,6.5c0,0.4-0.1,1-0.1,1H64.7c0.2,3.1,2.3,4.7,4.8,4.7c2.4,0,4.2-1.6,4.2-1.6l1.1,2
		c0,0-2.1,1.9-5.4,1.9C65,20,62,16.8,62,12.7C62,8.3,65,5.4,69,5.4z M72.2,11.2c-0.1-2.5-1.6-3.7-3.3-3.7c-2,0-3.7,1.4-4.1,3.7H72.2
		z"/>
</g>
</svg>
