<?xml version="1.0" encoding="UTF-8"?>
<svg enable-background="new 0 0 1790.333 1711.718" version="1.1" viewBox="0 0 1790.333 1711.718" xml:space="preserve" xmlns="http://www.w3.org/2000/svg">
	<path d="m325.07 1297.8c59.126-99.992 173.15-186.96 303.45-207.81 108.69-17.39 215.65 95.909 229.55 292.15-92.156 183.82-227.09 268.7-413.01 235.63-23.476-53.04-179.4-219.5-119.99-319.97z" fill="#FA1F08"/>
	<path d="m174.94 725.37c33.62 70.572 75.358 135.42 129.84 191.82 56.382 58.374 123.17 105.05 195.04 142.29 156.98 79.419 335.09 108.58 509.87 100.97 56.791-2.472 113.02-9.543 169.22-17.724-281.99 118.92-638.94 72.472-859.33-147.53-73.902-72.59-124.97-168.37-144.65-269.83z"/>
	<path d="m408.83 1119.2c-50.887 57.601-90.694 125.71-113.18 199.38-20.92 68.548-28.568 149.42 22.757 206.1 56.634 62.544 138.16 93.375 222.02 84.228 73.726-8.042 143.51-43.09 199.73-90.626 40.663-34.384 74.544-77.694 91.886-128.49 21.04-61.627 16.484-140.64-35.948-185.77-33.9-29.178-84.799-39.427-122.71-11.448-47.479 35.041-65.08 100.85-72.689 156.47-0.643-70.858 20.475-168.93 97.396-194.01 65.828-21.465 134.99 23.461 163.92 81.011 71.444 142.1-38.952 293.68-158.83 364.65-74.04 43.834-162.76 66.519-248.29 49.395-70.667-14.084-134.46-56.092-176.88-114.19-51.395-70.395-30.947-168.85 1.536-242.66 29.303-66.582 73.714-127.03 129.28-174.03z"/>
	<path d="m1191.7 988.54c39.797 17.699 74.152 50.063 102.87 82.083 28.608 32.1 56.902 69.949 69.871 111.52-39.833-17.606-74.225-50.015-102.87-82.083-28.552-32.166-56.806-69.974-69.871-111.52z"/>
	<path d="m58.424 744.21c22.672-28.731 55.6-50.421 87.247-67.974 31.689-17.456 67.642-33.759 104.04-37.524-22.605 28.776-55.576 50.486-87.247 67.974-31.73 17.4-67.645 33.679-104.04 37.524z"/>
	<path d="m242.47 410.47c72.272-16.643 171.58-18.893 313.89 1.739-58.647-85.666-205.04-116.24-381.71-127.82 280.61-35.795 417 50.69 492.13 189.12-137.63-25.219-294.26-54.493-424.31-63.039z"/>
	<path d="m298.12 168.31c73.42-15.547 156.77-8.37 229.02 9.498 70.082 17.33 142.05 46.076 190.94 101.36-64.798-29.766-130.54-51.865-200.13-67.846-72.819-16.723-146.76-27.616-219.84-43.014z"/>
	<circle cx="1360.6" cy="559.58" r="62.604"/>
	<path d="m1535.8 342.58c29.11 23.716 54.405 51.291 72.596 84.367 19.845 36.084 31.645 75.17 35.502 116.18 3.881 72.021-14.34 142.4-58.44 200.27-46.395 60.876-115.09 102.19-190.81 113.88-68.732 10.611-138.02-3.654-198.04-38.076-39.226-22.497-73.994-56.115-98.389-94.259-34.454-53.873-50.169-114.66-47.992-178.3 3.071-68.936 31.968-138.56 80.24-188.14 56.774-57.828 131.95-92.017 213.59-91.735 71.686 0.247 138.82 27.997 191.74 75.812-29.882-22.042-62.636-40.068-98.647-49.916-32.088-8.402-64.231-11.901-97.313-10.059-76.956 4.343-152.94 44.115-199.91 105.38-35.642 46.488-57.501 103.07-58.465 161.98-0.998 61.032 17.29 119.22 53.102 168.8 54.655 75.675 147.87 115.14 239.57 109.04 124.02-8.253 228.11-106.9 248.97-228.48 7.49-43.651 4.903-90.069-8.877-132.24-15.731-48.142-42.653-88.963-78.427-124.51z"/>
	<path d="m1236.3 55.859c36.093 50.81 85.738 97.556 149.55 144.92 160.25 118.93 319.97 268.38 346.06 361.71-45.994-49.535-90.977-94.599-131.58-126.37-248.63-194.5-340.86-307.5-364.03-380.26z"/>
</svg>
